<?xml version="1.0" encoding="utf-8"?>
<!-- Generator: Adobe Illustrator 19.1.0, SVG Export Plug-In . SVG Version: 6.00 Build 0)  -->
<svg version="1.1" id="Layer_1" xmlns="http://www.w3.org/2000/svg" xmlns:xlink="http://www.w3.org/1999/xlink" x="0px" y="0px"
	 viewBox="-124 126 150 150" style="enable-background:new -124 126 150 150;" xml:space="preserve">
<style type="text/css">
	.st0{fill:#2C3E51;}
	.st1{clip-path:url(#SVGID_2_);}
	.st2{opacity:0.2;enable-background:new    ;}
	.st3{opacity:0.2;clip-path:url(#SVGID_2_);enable-background:new    ;}
	.st4{fill:none;}
	.st5{fill:none;stroke:#66869A;stroke-miterlimit:10;stroke-dasharray:3.977901,3.977901;}
	.st6{fill:none;stroke:#66869A;stroke-miterlimit:10;stroke-dasharray:3.993892,3.993892;}
	.st7{fill:none;stroke:#66869A;stroke-miterlimit:10;stroke-dasharray:3.9629147,3.9629147;}
	.st8{fill:#CB5027;}
	.st9{fill:#F9A11B;}
	.st10{fill:#FFCA07;}
	.st11{fill:#66869A;}
	.st12{clip-path:url(#SVGID_4_);fill:#42687E;}
	.st13{fill:#FCC90A;}
	.st14{fill:#FBB216;}
	.st15{fill:#F8A01B;}
	.st16{fill:#FCB315;}
	.st17{fill:#C2955C;}
	.st18{fill:#846742;}
	.st19{fill:#836640;}
	.st20{fill:#846642;}
	.st21{fill:#866843;}
	.st22{fill:#856741;}
	.st23{fill:#876741;}
	.st24{fill:#8A6B41;}
	.st25{fill:#FDBD4C;}
	.st26{fill:#F6AB20;}
</style>
<circle class="st0" cx="-49" cy="201.000061" r="75"/>
<g>
	<defs>
		<circle id="SVGID_1_" cx="-49" cy="201.000061" r="75"/>
	</defs>
	<clipPath id="SVGID_2_">
		<use xlink:href="#SVGID_1_"  style="overflow:visible;"/>
	</clipPath>
	<g class="st1">
		
			<rect x="-13.4584017" y="193.2523041" transform="matrix(-0.7071068 -0.7071068 0.7071068 -0.7071068 -115.6157455 353.7345886)" class="st2" width="57.8227272" height="15.1195917"/>
	</g>
	<g class="st1">
		
			<rect x="-92.9845886" y="260.0325928" transform="matrix(-0.7071068 -0.7071068 0.7071068 -0.7071068 -308.4032288 402.2593079)" class="st2" width="44.187191" height="9.9389048"/>
	</g>
	<polygon class="st3" points="-31.1162491,184.1984558 -34.0455093,187.1277161 -67.4236145,153.7496643 -78.2475281,164.5735779 
		-44.8694229,197.9516296 -65.6625061,218.7447205 -7.8559341,276.5513 26.6903992,242.0050354 	"/>
</g>
<circle class="st4" cx="-49" cy="201.000061" r="75"/>
<g>
	<circle class="st5" cx="-49" cy="201.000061" r="35.4630356"/>
</g>
<g>
	<circle class="st6" cx="-49" cy="201.000061" r="48.3218765"/>
</g>
<g>
	<circle class="st7" cx="-49" cy="201.0000458" r="61.8189926"/>
</g>
<circle class="st8" cx="-86.9375229" cy="248.9627991" r="5"/>
<g>
	<circle class="st9" cx="-49" cy="201.000061" r="24.3447952"/>
	<circle class="st10" cx="-49" cy="201.000061" r="21.6017151"/>
</g>
<g>
	<circle class="st11" cx="-72.7992096" cy="159.1851044" r="7.663373"/>
	<g>
		<g>
			<defs>
				<circle id="SVGID_3_" cx="-72.7992096" cy="159.1851044" r="7.663373"/>
			</defs>
			<clipPath id="SVGID_4_">
				<use xlink:href="#SVGID_3_"  style="overflow:visible;"/>
			</clipPath>
			<circle class="st12" cx="-75.9124527" cy="156.3113403" r="7.6633739"/>
		</g>
	</g>
</g>
<g>
	<path class="st13" d="M-27.7614746,201.0015259c-0.0218201,11.7268677-9.5293427,21.3149414-21.1231461,21.2493591
		c-12.6628113-0.0716553-21.4964142-10.3689575-21.3522034-21.5717316
		c0.148613-11.5445557,9.6625977-20.9682312,21.3700714-20.93013
		C-37.1753311,179.7870483-27.7396774,189.2885437-27.7614746,201.0015259z"/>
	<path class="st14" d="M-50.6093445,197.6812286c-0.419548-0.0383453-0.9034042,0.0154724-1.3763428,0.4182892
		c-0.5849762,0.4982605-1.2244186,0.3120728-1.6305161-0.4194946c-0.1996307-0.3596344-0.3819809-0.4745789-0.8000717-0.4151917
		c-0.9765701,0.1387329-1.421463-0.4551086-0.9757156-1.3334045c0.2226181-0.4386444,0.1222458-0.5283813-0.2628479-0.7510071
		c-0.5631332-0.325592-1.0499039-0.7559052-1.772438-0.6120911c-0.1808243,0.0360107-0.4060211-0.1245117-0.2463531-0.2970734
		c0.4147949-0.448288,0.258049-0.9410553,0.2479324-1.4446716c-0.0088425-0.4402924,0.3742828-0.6224976,0.7192764-0.764389
		c0.9902039-0.4072723,1.5357285-1.0728455,1.330101-2.1936035c-0.2314987-1.261734,0.5945816-1.9476318,1.4307709-2.6162415
		c0.2028503-0.1622009,0.4222107-0.2861481,0.5226898-0.5429077c0.8224258-2.1016388,2.7170105-2.7999878,4.6040802-3.4962463
		c0.6345978-0.2341614,1.2715836-0.5547943,1.9800949-0.2237701c0.1980515,0.0925293,0.4987564,0.0680237,0.5089874,0.3675079
		c0.008461,0.2475891-0.257843,0.2843018-0.4268112,0.3601837c-0.3118057,0.1400452-0.6391602,0.2472382-0.9641571,0.3557892
		c-0.6144867,0.2052155-1.3168335,0.2981873-1.3734589,1.1661682c-0.0045319,0.0694885-0.0896835,0.1674805-0.1594391,0.1938629
		c-0.9636154,0.3645172-0.9328995,1.3018951-1.1987534,2.0662079c-0.2152786,0.6188812,0.0313263,0.9857941,0.6984634,1.0480804
		c0.4812393,0.0449371,0.9751968-0.0895691,1.446312,0.100235c0.7795258,0.3140564,0.8154755,0.7630615,0.2162323,1.325882
		c-0.8926392,0.8383636-1.9552231,1.3041534-3.0993576,1.6461334c-0.2720947,0.0813293-0.5365372,0.1974182-0.7917786,0.3233185
		c-0.2492371,0.1229095-0.5985947,0.2399139-0.5323029,0.5771027c0.0560379,0.2850342,0.389534,0.1358032,0.5990753,0.1679077
		c0.4591751,0.0703583,0.5280075,0.3489685,0.4618988,0.7478027c-0.1604462,0.967865,0.0663147,1.3585205,0.9926147,1.6576691
		c0.5409088,0.1746826,1.0968781,0.3049774,1.6500702,0.4386444c0.4790726,0.1157684,0.5465164,0.3643494,0.4017487,0.8211365
		C-48.7446976,197.4112396-49.126152,197.6812439-50.6093445,197.6812286z"/>
	<path class="st15" d="M-45.4996948,207.7529449c-0.6354446-0.4066315-1.1907806-0.1265411-1.7510376-0.0915375
		c-0.8594742,0.0537109-1.6217422-0.1974792-2.2862549-0.7749023c-0.6885071-0.5982666-1.3791428-1.1976166-2.1994324-1.6252136
		c-0.4788895-0.249649-0.7796783-0.6522064-0.8874359-1.1990204c-0.0880508-0.4468842-0.1780319-0.8951874-0.6090469-1.1815643
		c-0.4526749-0.3007507-0.2440796-0.6702271,0.0014038-0.9519348c0.2749786-0.3155518,0.5780716-0.3308105,0.9662323-0.035675
		c1.2448807,0.9465637,2.6689148,1.8449402,4.2174759,1.5865784c2.2890854-0.381897,4.7742081-0.2713013,6.7166367-1.9488068
		c0.3701019-0.3196106,0.7513275-0.6033936,1.0101929-1.0298462c0.2371292-0.390625,0.4763718-0.7877655,0.7715607-1.1334381
		c0.4007568-0.4692993,0.8850479-0.9315643,1.5399094-0.469696c0.6805954,0.4799805,0.2507706,1.0900269,0.0168228,1.6034088
		c-0.1606293,0.3524933-0.5227127,0.6078339-0.7228699,0.9487915c-0.3710632,0.6320953-1.3898315,0.9182739-0.9583206,2.0189972
		c0.1152115,0.2938843-0.5314407,0.6911011-0.8834534,0.9712677c-0.345253,0.2747955-0.5130386,0.5771942-0.5288925,1.0146027
		c-0.0344086,0.9494629-0.5337524,1.5062256-1.4593887,1.760498
		C-43.5417633,207.4891052-44.6390152,207.0216064-45.4996948,207.7529449z"/>
	<path class="st14" d="M-52.3198318,220.0653839c-1.1952515-0.1321259-2.1486511-0.2211151-3.0966873-0.3497162
		c-0.4301605-0.0583496-0.8230743-0.2652893-1.1359329-0.5680847c-0.9293518-0.8995056-1.9085159-1.7514343-2.6550446-2.8262634
		c-0.4410858-0.6350708-0.3995743-0.9779053,0.261467-1.2459717c0.3466568-0.1405792,0.2730179-0.3565216,0.2396393-0.6212158
		c-0.1630402-1.2929993-0.9911957-2.2045593-1.7432785-3.1776276c-0.4938354-0.6389313-1.0161171-1.3255463-0.6397247-2.3412018
		c0.2962418,0.210556,0.5096245,0.6137085,0.8772888,0.3950806c0.3387756-0.2014465,0.1356087-0.5741119,0.1852684-0.8681641
		c0.1474342-0.8729248-0.1402016-1.5661316-0.8594093-2.0853577c-0.1146202-0.0827484-0.2214127-0.1888733-0.3007355-0.3053589
		c-0.1661758-0.2440186-0.5243187-0.5059204-0.2402191-0.8029175c0.2450943-0.2562561,0.523716,0.0816956,0.7559471,0.2011719
		c0.3264732,0.1679688,0.6054916,0.4254608,0.9220695,0.6159821c0.4973373,0.2993011,0.7875748,0.1289825,0.7450104-0.4383392
		c-0.0481567-0.6417847,0.1778412-1.2409668,0.2120895-1.868576c0.0151215-0.2770844,0.1365814-0.5912781,0.5200348-0.557251
		c0.3831253,0.0339813,0.3134308,0.3560638,0.3061371,0.5974731c-0.023941,0.7928314,0.2844086,1.4456482,0.5660706,2.1781158
		c0.3785248,0.9843445,0.5016556,2.2209625,0.2242889,3.3672791c-0.0737915,0.3049927-0.1785355,0.6033783-0.2379532,0.9108124
		c-0.1776505,0.9191437-0.0249176,1.0843658,0.9041519,1.0167236c0.4324036-0.0314789,0.8598785-0.0536346,0.5683365,0.59935
		c-0.1369781,0.3067932,0.0122375,0.3743591,0.2894974,0.4486389c0.6139526,0.1644592,0.5105286,0.5011444,0.1609039,0.8745422
		c-0.2723389,0.2908478-0.6074905,0.5270386-0.7814178,0.9055786c-0.1540985,0.3353882-0.2768097,0.7440491,0.1437454,0.8844452
		c0.8748474,0.2920685,0.6094589,0.9604492,0.5221176,1.495224c-0.2350311,1.4390564,0.1646271,2.1737366,1.551796,2.5275269
		C-53.4575119,219.1795197-52.951889,219.4455109-52.3198318,220.0653839z"/>
	<path class="st14" d="M-32.3805237,193.2643738c1.2872467,0.9983826,1.8439331,2.2920685,1.9797974,3.8010864
		c0.0280991,0.3120422-0.0740509,0.6885986,0.1752701,0.9045105c0.6781082,0.5872192,0.4562149,1.2010193,0.1440735,1.8444519
		c-0.2381516,0.490921-0.1779251,1.0126343-0.0915833,1.5173798c0.0470276,0.2749481,0.2161484,0.6302948,0.5815582,0.3933105
		c0.468811-0.3040314,0.5098953-0.0097809,0.6157684,0.3184052c0.3508453,1.0875549-0.2058868,2.0150299-0.5418625,2.966217
		c-0.2849274,0.8067017-0.7126617,1.5618286-1.0322266,2.3578186c-0.2170029,0.5405273-1.0474396,0.5892792-0.9918137,1.3556213
		c0.0257263,0.3544922-0.2331619,0.7315521-0.2005234,1.083313c0.1428299,1.5395203-1.2065659,1.6937714-2.0762711,2.2683716
		c-0.2854767,0.1886292-0.3966675-0.1375427-0.3435745-0.3814545c0.1100693-0.5057526,0.3228531-0.975235,0.5832443-1.424942
		c0.4042358-0.6981506,0.5901642-1.3936768,0.1331329-2.1729431c-0.3570328-0.6087952-0.3685684-1.2207031,0.174324-1.806778
		c0.6792374-0.7332611,0.8312225-1.6059723,0.4501572-2.5501099c-0.0866547-0.2146912-0.1423035-0.4156799-0.0221558-0.654892
		c0.5445938-1.0843201,0.5614853-2.2517242,0.5638428-3.4351196c0.0020218-1.0169373-0.0965729-2.0254211,0.2626724-3.0539551
		c0.2229462-0.6383057,0.2438736-1.4536896-0.2184677-2.1534424
		C-32.4232483,194.1565399-32.5696106,193.7661438-32.3805237,193.2643738z"/>
	<path class="st14" d="M-43.4899063,184.0208588c0.5024719-0.177475,0.8231583-0.1341858,1.1704865,0.079361
		c0.7021561,0.4317322,1.4370956,0.809845,2.1535721,1.2187347c0.2842789,0.1622467,0.5558243,0.3728943,0.4018402,0.749176
		c-0.3127289,0.7642365,0.1793823,0.969223,0.7475433,1.1236115c1.1021118,0.2994995,2.0639954,0.7614594,2.6808853,1.8171692
		c0.2683105,0.4591675,0.1429596,0.6136017-0.2595291,0.7219543c-0.5212555,0.1403046-1.0484467,0.2648163-1.579361,0.3616791
		c-1.3067627,0.2384186-1.8496552,0.8145294-1.7425995,2.09935c0.041832,0.5021973-0.1309204,0.6994629-0.4752655,0.9665527
		c-0.4129486,0.3202972-0.9316635,0.3971863-1.3435287,0.7362518c-0.4101257,0.3376465-0.6560898-0.1085358-0.6843948-0.4254456
		c-0.0395813-0.4431-0.2144547-0.7565155-0.5329819-1.0234528c-0.4715042-0.3951416-0.4264984-0.7291718,0.0608978-1.0987701
		c0.6169281-0.4678192,0.5881348-0.7750702-0.0608597-1.232193c-0.2328873-0.164032-0.4800034-0.3089142-0.7266312-0.4521942
		c-0.8349991-0.4850769-0.8773575-1.1312714-0.0121994-1.5880737c0.7086716-0.374176,1.0882645-0.7028809,0.4634323-1.453537
		c-0.0892563-0.1072388-0.120079-0.3780518-0.0478287-0.4862976
		C-42.7809601,185.3924103-42.7101746,184.686554-43.4899063,184.0208588z"/>
	<path class="st14" d="M-47.2024002,217.8737183c-0.9908676-0.19104-1.8176575-0.4822083-2.529953-1.0437622
		c-0.0854568-0.0673523-0.2159119-0.2187805-0.1934357-0.2611237c0.4659576-0.8776245-0.3541031-1.042984-0.7812881-1.4013824
		c-0.7117462-0.5971069-1.0552979-1.4653168-1.6362228-2.1582947c-0.1643524-0.1960449-0.1811752-0.506424-0.0131989-0.7274628
		c0.1687698-0.2221069,0.4092331-0.0945587,0.631424-0.0335541c1.04702,0.2873688,2.0832748,0.7696228,2.9487228,1.2909546
		c0.6829147,0.411377,1.440979,0.675705,2.1182785,1.0889282c0.5526886,0.3371887,1.1630325,0.3644714,1.7343216-0.1186829
		c0.4478378-0.3787537,0.9986115-0.6557617,1.5544586-0.222168c0.9562454,0.7459106,1.7575912,0.2636414,2.5579758-0.2600098
		c0.8328552-0.5448761,1.6133499-1.1777496,2.6087494-1.4279633c0.2210846-0.0555725,0.4890213-0.2108307,0.6284561,0.0107117
		c0.155838,0.2476044-0.1398697,0.4057617-0.2993698,0.5414886c-0.4551086,0.3872375-0.9282303,0.7539673-1.4035339,1.1166229
		c-0.353569,0.2697754-0.6968689,0.6355133-0.7209778,1.0269928c-0.0695648,1.1297913-0.8910294,1.2223358-1.6793442,1.313385
		c-0.4909592,0.0567017-0.9897308,0.0883942-1.3978958,0.3470459
		C-44.3839035,217.7848206-45.9572525,217.2662811-47.2024002,217.8737183z"/>
	<path class="st15" d="M-69.1565857,201.7552185c0.6252136,0.1622162,0.4598236,0.6784973,0.629364,1.0039062
		c0.1057434,0.2029419,0.1346588,0.4493408,0.449913,0.4147034c0.2715683-0.0298309,0.2584763-0.24823,0.3198318-0.4369965
		c0.1635437-0.5031891,0.1597137-0.9893951,0.0552597-1.5150757c-0.1497726-0.7537842-0.3017807-1.5437469,0.6806564-1.9619598
		c0.3904648-0.1661987,0.4032745-0.7384186,0.786293-0.9738617c0.1175308-0.0722504,0.2060318-0.2200165,0.3644943-0.1729279
		c0.1746674,0.0518951,0.1575012,0.2212524,0.1562042,0.3588562c-0.0035019,0.3717804,0.0623627,0.7685089-0.043251,1.1109467
		c-0.5477295,1.7760162-0.5781937,3.6505432-1.0908585,5.4360504c-0.331131,1.1532288,0.4699097,2.7000122,1.5191345,3.1697388
		c0.1812057,0.0811462,0.2929077,0.1646729,0.2980957,0.3579102c0.0224228,0.8345032,0.5252533,1.3188934,1.164463,1.775116
		c0.5580597,0.3983002,0.9767342,0.9601593,1.1636047,1.6528778c0.0968666,0.3590546-0.0671997,0.6251678-0.3482552,0.7958527
		c-0.2435875,0.147934-0.5554428,0.1003876-0.6913109-0.1423035c-0.5865517-1.0477295-1.8139839-1.3967896-2.4990807-2.3107605
		C-68.1308441,207.7974243-69.2997131,205.025238-69.1565857,201.7552185z"/>
	<path class="st14" d="M-64.3686676,195.466507c0.2593384-0.5585175-0.0819397-0.8053589-0.4254227-1.0257874
		c-0.5163345-0.3313446-0.9401321-0.6689301-0.6148605-1.3854523c0.1491089-0.3284607-0.0870056-0.5123901-0.3654938-0.6679382
		c-0.6012726-0.3358459-0.6864929-0.7550354-0.1004333-1.1875153c0.5279846-0.3896027,0.9133911-0.7785034,0.4265137-1.4700165
		c-0.1400757-0.1989441-0.1263885-0.5131989,0.2516861-0.3877869c0.6203842,0.2058105,0.8966904-0.1839294,1.1891861-0.5858765
		c0.0503464-0.0691833,0.07547-0.1629791,0.1372604-0.2165375c0.3348656-0.2902527,0.622261-0.958847,1.0226898-0.7610626
		c0.4067802,0.2009277-0.0672569,0.7154846-0.1728783,1.0911102c-0.0364304,0.1295471-0.0294571,0.2713165-0.0423088,0.407486
		c0.9246559-0.2633514,0.4851036,1.202179,1.3783607,1.0786438c0.2682838-0.0371094,0.5044861,0.3613281,0.424469,0.7290192
		c-0.0907249,0.4168549-0.4248962,0.4066315-0.749958,0.3815765c-0.9557343-0.0736389-1.4335442,0.5429077-0.9818573,1.4261169
		c0.3934593,0.7693481,0.5044937,1.3748169-0.2766571,1.9277649c-0.1735535,0.1228333-0.2407303,0.3274536-0.1497459,0.5396118
		c0.236351,0.5511169-0.0395546,0.8901367-0.5333252,0.907196
		C-64.5926895,196.2892151-64.1800995,195.6940002-64.3686676,195.466507z"/>
	<path class="st9" d="M-55.9709244,184.0016632c-0.0639725,0.7433929-0.2206879,1.3618927-1.0024719,1.6645966
		c-0.4214478,0.1631927-0.624115,0.5887299-0.6376419,1.0492706c-0.0263748,0.8980408-0.7795639,1.2058563-1.331131,1.6780396
		c-0.0992889,0.0850067-0.2213135,0.0783234-0.2954788-0.0375824c-0.1366806-0.2136536-0.3290634-0.4318542-0.1598663-0.7047729
		c0.3017654-0.4867401,0.4426651-0.9024506-0.2323837-1.2286987c-0.2608261-0.1260529-0.1166229-0.3569641,0.101387-0.4437561
		c0.7253647-0.2887726,1.2832336-0.7062225,1.5023651-1.5194397c0.0871277-0.3233337,0.4464951-0.3977051,0.7904053-0.3958588
		C-56.8401642,184.065567-56.4443665,184.0267944-55.9709244,184.0016632z"/>
	<path class="st16" d="M-36.5264282,208.2688141c0.1315613,1.1120148-0.5944138,2.0383148-1.4558411,2.1234589
		c-0.0756836,0.0074768-0.1893234-0.0105133-0.228569-0.0608826c-0.1128311-0.1448822,0.0014343-0.260376,0.0966873-0.3628845
		C-37.6318283,209.4494324-37.147049,208.9326324-36.5264282,208.2688141z"/>
</g>
<g>
	<path class="st17" d="M-13.6134415,217.1506805c-0.0853653-0.5518341-0.2619095-1.0700531-0.5654221-1.5416412c0,0,0,0,0,0
		c-0.4531479-0.7952271-1.0860977-1.40448-1.8988571-1.8216858c-0.5578384-0.2863464-1.1485596-0.4432526-1.7782822-0.5008545
		c-0.5743561-0.0525208-1.1300125,0.0109253-1.6686249,0.1723328c-0.9023972,0.2704468-1.6648102,0.7669067-2.2729111,1.504303
		c-0.632843,0.7674255-0.9824371,1.6468353-1.0582275,2.6253662c-0.0733948,0.9476166,0.1311035,1.8471375,0.6160965,2.6744995
		c0.4451523,0.7593689,1.0448837,1.3574829,1.8254852,1.769043c0.0415115,0.0271301,0.0805359,0.0595093,0.1249161,0.0805664
		c0.5068283,0.2407227,1.0315247,0.4033661,1.5960617,0.4618683c0.8519821,0.0883026,1.6622543-0.0396576,2.4353485-0.3928375
		c0.8495483-0.3880768,1.5131302-0.9926605,2.010376-1.7854919c0.4509583-0.7190399,0.6750488-1.5029907,0.7080765-2.3470764
		C-13.5275574,217.7462463-13.5673904,217.4483948-13.6134415,217.1506805z"/>
	<path class="st18" d="M-17.7129517,217.4205322c-0.1198883-0.0052948-0.1810074-0.024231-0.1336212-0.1489868
		c0.0857162-0.2256165,0.1990814-0.431839,0.3589554-0.6133728c0.044632-0.0506897,0.0899124-0.0932617,0.1218491-0.0077972
		c0.0497131,0.1330414,0.2182388,0.2447662,0.1164627,0.4083862
		C-17.3609848,217.2383118-17.5327606,217.3537292-17.7129517,217.4205322z"/>
	<path class="st18" d="M-21.5786743,218.0653839c0.0003662,0.1461334-0.0422897,0.264389-0.0744629,0.3851471
		c-0.018486,0.069397-0.0603638,0.114502-0.1277313,0.1197357c-0.0686798,0.0053253-0.111969-0.0414276-0.1441269-0.1012573
		c-0.0987167-0.18367-0.0619049-0.5541077,0.0684891-0.7126312c0.0487595-0.0592651,0.0832443-0.0543365,0.1357727-0.0040894
		C-21.6248093,217.8440552-21.5614471,217.9456482-21.5786743,218.0653839z"/>
	<path class="st18" d="M-20.1905289,216.1691895c0.1016617,0.0290222,0.1802979,0.0705872,0.1258469,0.1856689
		c-0.0692215,0.1463013-0.1439896,0.2906799-0.2270966,0.4294434c-0.0461273,0.0770111-0.1282425,0.0964355-0.1855621,0.0150452
		c-0.0824585-0.1170654-0.0675201-0.2539368-0.0144882-0.3760986
		C-20.435051,216.2924805-20.3315048,216.2016602-20.1905289,216.1691895z"/>
	<path class="st19" d="M-19.8506622,214.2683716c-0.0257874,0.1119995-0.0544815,0.2403259-0.1678696,0.2578125
		c-0.140564,0.0216675-0.2368622,0.1029816-0.3485718,0.1682892c-0.0693893,0.0405731-0.1598434,0.088089-0.217453,0.0020752
		c-0.0530167-0.0791473,0.0219345-0.1441193,0.0829773-0.1855621c0.1632233-0.1108398,0.2908173-0.2849731,0.5076294-0.302597
		C-19.9400864,214.20401-19.8615417,214.1724854-19.8506622,214.2683716z"/>
	<path class="st20" d="M-15.8475723,217.0823364c-0.1385193,0.0086517-0.1867218-0.0948792-0.204567-0.2110291
		c-0.0188522-0.1226807,0.1356354-0.2427673,0.2998276-0.2449188c0.1046829-0.0013733,0.1666107,0.0501709,0.1698227,0.1559601
		C-15.5782547,216.9214478-15.7163239,217.0798645-15.8475723,217.0823364z"/>
	<path class="st20" d="M-19.2223053,221.4224243c-0.0544205-0.0098419-0.1244354-0.0207977-0.1478348-0.0842896
		c-0.0287552-0.078064,0.0432968-0.1069336,0.0965424-0.1353302c0.0931168-0.0496674,0.187027-0.0986786,0.2840652-0.1397552
		c0.0505905-0.0214233,0.11763-0.0344543,0.1514206,0.0240479c0.0326767,0.0565491,0.0210495,0.1194458-0.0260162,0.1723022
		C-18.9138565,221.3152161-19.1382217,221.4217529-19.2223053,221.4224243z"/>
	<path class="st21" d="M-18.4408264,214.2424927c0.1002655,0.003418,0.1753616,0.0434265,0.1717529,0.1280823
		c-0.0043793,0.1029053-0.0851898,0.1862183-0.1870422,0.1655884c-0.1122284-0.0227661-0.3156433-0.0170593-0.3098068-0.1316223
		C-18.7577362,214.2440186-18.5440216,214.2984924-18.4408264,214.2424927z"/>
	<path class="st22" d="M-15.708786,214.4883118c0.1003494,0.0648499,0.1821899,0.1474609,0.2057037,0.2726746
		c0.0172882,0.0920715-0.0321274,0.1531982-0.1194305,0.1546936c-0.121994,0.0020752-0.176918-0.0805054-0.1804504-0.1956787
		C-15.8056183,214.6334991-15.8178177,214.5398865-15.708786,214.4883118z"/>
	<path class="st23" d="M-21.1263885,220.6748199c0.1369476,0.0114899,0.3054428,0.1448517,0.2895203,0.2290344
		c-0.009964,0.0526886-0.0489883,0.0680084-0.0980988,0.0646362c-0.0658417-0.0045319-0.2998657-0.1998291-0.2930145-0.248642
		C-21.2185516,220.6526184-21.1626587,220.6805878-21.1263885,220.6748199z"/>
	<path class="st24" d="M-19.5033417,218.6253052c0.0016479,0.0942078-0.0211792,0.1540527-0.1111679,0.1549988
		c-0.063797,0.0006714-0.1155243-0.0303345-0.1072006-0.0984497c0.0100784-0.082489,0.0488358-0.1650696,0.1406097-0.1750793
		C-19.4803619,218.4958191-19.5227737,218.5923462-19.5033417,218.6253052z"/>
	<path class="st20" d="M-16.694252,221.5431976c-0.0442352-0.0088959-0.1184769,0.0230255-0.121048-0.0684357
		c-0.0028992-0.1029968,0.237114-0.3199768,0.3446503-0.3084106c0.0885696,0.0095215,0.1601257,0.0561829,0.1611633,0.1528473
		C-16.3083801,221.4212952-16.5259781,221.5444183-16.694252,221.5431976z"/>
	<path class="st20" d="M-14.2110138,217.2061462c0.1955948,0.1185608,0.2488937,0.2923584,0.2830505,0.471283
		c0.0159836,0.0837708-0.0174561,0.1733551-0.1122284,0.1886139c-0.0966492,0.0155487-0.0937881-0.0758209-0.1093521-0.1417389
		C-14.1880951,217.5610657-14.2355957,217.3991699-14.2110138,217.2061462z"/>
	<path class="st20" d="M-14.970665,220.4086761c0.0058136,0.0550842-0.0119629,0.1252441-0.0861359,0.1694336
		c-0.0400848,0.02388-0.0838013,0.0272675-0.1253281,0.0041046c-0.046608-0.026001-0.0495605-0.0648804-0.0323868-0.1127625
		c0.0146484-0.040863,0.0121002-0.0897522,0.0327759-0.1262207c0.0348434-0.0614014,0.0368042-0.181427,0.1192398-0.1669922
		C-14.9806366,220.1905823-14.974472,220.3001404-14.970665,220.4086761z"/>
	<path class="st20" d="M-18.0064011,221.8959045c-0.0379715,0.0664673-0.0888519,0.1203918-0.1740265,0.1137238
		c-0.0369949-0.0028839-0.0846252-0.0330963-0.0686188-0.0715485c0.0279312-0.0670929,0.0716858-0.1333618,0.161438-0.1277466
		C-18.0390854,221.8133545-18.0057983,221.8381042-18.0064011,221.8959045z"/>
	<path class="st20" d="M-14.8601913,218.1013184l-0.000145-0.0001068c-0.0115509-0.0389862-0.0231094-0.0779572-0.0346527-0.1169434
		c-0.0133514-0.0540924-0.0234604-0.1092682-0.0408249-0.1620331c-0.0238876-0.0726166-0.0610046-0.1500549-0.14534-0.1483765
		c-0.0922623,0.0018616-0.0821228,0.0970764-0.0977631,0.1591949c-0.0422821,0.1679535-0.0017166,0.3490448-0.068306,0.5118256
		c-0.0472641,0.1155548-0.0213013,0.1919098,0.0827713,0.2498016c0.0012665,0.0118256,0.0029068,0.0236206,0.0049286,0.0353546
		c0.1719208-0.029129,0.2400818-0.1619568,0.3009109-0.3020935
		C-14.8330002,218.2522278-14.830864,218.1766663-14.8601913,218.1013184z"/>
</g>
<g>
	<path class="st25" d="M-13.1513519,176.8747711c0.4377365-1.3334351,1.236351-2.4228821,2.30233-3.3141479
		c1.4875183-1.2437286,3.2192154-1.85466,5.1532593-1.7707214c2.5285187,0.1097565,4.5571365,1.1956329,6.0269928,3.2783356
		c0.0009079,0.4024963-0.0541153,0.8017273-0.0720139,1.2032471c-0.0054626,0.1223755-0.0452728,0.2445068-0.1066132,0.3545837
		c-0.0528564,0.0948486-0.1237564,0.1746826-0.2438126,0.1571503c-0.1321411-0.0192719-0.1451035-0.1323547-0.1551971-0.2362976
		c-0.0170288-0.1753082,0.0004501-0.3518524-0.012619-0.5273743c-0.0045547-0.0611725-0.0089264-0.1296539-0.0774384-0.1570587
		c-0.0787354-0.0314941-0.1405334,0.0106506-0.1932602,0.0637512c-0.0988922,0.0995636-0.1310883,0.2327423-0.1742172,0.3596802
		c-0.0731125,0.21521-0.1111298,0.4418335-0.2155457,0.647049c-0.079071,0.1553955-0.1882935,0.2733917-0.366333,0.3069
		c-0.2112045,0.0397339-0.3123093-0.0540009-0.2924118-0.2710724c0.009407-0.1026306,0.0507431-0.2023468,0.0387344-0.3068695
		c-0.0153198-0.1333923-0.077446-0.2485046-0.2144852-0.2732239c-0.1602554-0.0289307-0.2119293,0.1017761-0.2450409,0.224823
		c-0.0457306,0.1699219-0.0780029,0.3429565-0.0778351,0.5205536c0.0001068,0.1138-0.0004578,0.2279053-0.0277634,0.3395844
		c-0.0819168,0.3349609-0.2843246,0.4046631-0.5327148,0.1699524c-0.2447891-0.2313232-0.3937073-0.5150909-0.3239517-0.8620148
		c0.0678406-0.3374176,0.0012054-0.6361237-0.1954269-0.9114685c-0.1639862-0.2296295-0.2181854-0.4878845-0.2044067-0.7646179
		c0.0320511-0.643692-0.3804092-1.1180725-0.6336594-1.6526031c-0.0303802-0.0641174-0.0977859-0.1064758-0.1716537-0.1250916
		c-0.0633621-0.0159607-0.1287537-0.0167847-0.167984,0.0422821c-0.0323257,0.0486908-0.0044632,0.0986176,0.0281448,0.1412964
		c0.0504456,0.06604,0.1098938,0.1239471,0.1685791,0.182251c0.2630844,0.2613678,0.3988037,0.5703888,0.3852844,0.9474335
		c-0.0104828,0.2926941,0.0522232,0.5777283,0.1604843,0.8487854c0.0998764,0.2500458,0.1047668,0.5073853,0.0705872,0.7642975
		c-0.0529861,0.3981781-0.3807983,0.5658722-0.7287064,0.3621368c-0.2016449-0.1180878-0.390358-0.2005463-0.6343613-0.1958618
		c-0.230545,0.0044556-0.3215332-0.1723328-0.3407288-0.5371857c-0.0185471-0.3525543-0.1112747-0.4736786-0.3930359-0.5404205
		c-0.1818466-0.0430756-0.2787552-0.0042267-0.3390961,0.1957855c-0.184082,0.6101227-0.2351074,1.1862335,0.1772308,1.7438202
		c0.2015076,0.2724915,0.1072083,0.5267639-0.2345657,0.7543488c-0.1971512,0.1312714-0.3155823,0.2888031-0.3405533,0.5226593
		c-0.0185852,0.1740875-0.0175018,0.3761902-0.2417068,0.4192047c-0.2527084,0.0484772-0.512619,0.0977478-0.7335281-0.1126404
		c-0.1653061-0.1574249-0.224205-0.3677368-0.3128433-0.5650787c-0.0472717-0.1052399-0.0353165-0.2515564-0.1967468-0.302597
		c-0.0855408,0.1539764-0.0052261,0.283905,0.0503998,0.4111328c0.1037903,0.237381,0.2602005,0.4471283,0.3681641,0.6829071
		c0.0518265,0.1131897,0.1074905,0.2244568,0.1133118,0.3520508c0.0120773,0.2650452-0.115303,0.3832703-0.3707962,0.3155823
		c-0.2001724-0.0530243-0.2232742,0.0274658-0.1785126,0.1862335c0.0281372,0.0997925,0.0797348,0.1908417,0.1187973,0.2866211
		c0.0492325,0.1207275,0.0713501,0.2434235-0.0274506,0.3489838c-0.1017761,0.1087341-0.2314301,0.1256866-0.3720551,0.089325
		c-0.0966034-0.0249634-0.1855698-0.0953674-0.3165054-0.0515594c0.0181808,0.1940002,0.0567551,0.3878326,0.029892,0.582489
		c-0.0159454,0.1155243-0.0399857,0.2355499-0.1588745,0.2834625c-0.1122513,0.0452271-0.1940079-0.0408478-0.2733536-0.1069031
		c-0.0556564-0.0463562-0.1036224-0.1018524-0.1618423-0.1450195c-0.1989136-0.1474609-0.3550339-0.1322632-0.514183,0.0537567
		c-0.0807495,0.0943756-0.142662,0.203186-0.2161407,0.30336c-0.1151886,0.1570587-0.2661057,0.2270508-0.4592896,0.187149
		c-0.1864243-0.0384979-0.268959-0.1781006-0.3203354-0.3442841c-0.0246048-0.0796051-0.0369797-0.1617737-0.0403519-0.2445068
		c-0.0087738-0.215271-0.1140289-0.3324585-0.3271332-0.3900604c-0.3154526-0.0852509-0.3968582-0.2467499-0.3107224-0.5566101
		c0.0586929-0.2111359,0.1604004-0.4044189,0.2778168-0.587677c0.1536179-0.2397614,0.1809387-0.4782715,0.0298157-0.7291107
		c-0.1484756-0.2464752-0.1274796-0.4971771,0.0075455-0.7383575c0.1297226-0.2317047,0.094429-0.4080658-0.0405807-0.6517792
		c-0.2147293-0.387619-0.4917603-0.8113861-0.1563416-1.2895813c0.0555191-0.0791321,0.1017075-0.1804047,0.0982742-0.3108368
		c-0.3001328,0.0634308-0.4199448,0.2880707-0.4962463,0.5340424c-0.0989456,0.3189392-0.1329269,0.6491089-0.0725937,0.9819641
		c0.0372543,0.2055511,0.048996,0.4117279,0.0220184,0.618042c-0.0404892,0.3096924-0.2288818,0.5268555-0.4423523,0.5218201
		c-0.19664-0.0046539-0.3611526-0.2231598-0.385231-0.5302734c-0.016983-0.2166595-0.0175858-0.4345093,0.0245438-0.6497345
		c0.0340729-0.1741028,0.0351868-0.3500061,0.0249481-0.5258484c-0.0053711-0.0921326-0.0050812-0.2013245-0.1090622-0.2383423
		c-0.0970917-0.0345612-0.1420975,0.0621948-0.1959305,0.1206207c-0.0635605,0.0689697-0.1268234,0.1389313-0.2145386,0.1755524
		C-12.9538727,176.99263-13.0752792,177.0330658-13.1513519,176.8747711z"/>
	<path class="st25" d="M0.8997345,182.5602112c-0.0304108-0.4033661-0.1983185-0.5394592-0.5951462-0.4654083
		c-0.0948868,0.0177002-0.1802521,0.0115509-0.2697449-0.0276184c-0.307457-0.134552-0.3746872-0.0780334-0.3305664,0.2745972
		c0.0190887,0.1525726,0.0721054,0.3056488-0.0067902,0.5105438c-0.1251831-0.2707977-0.225975-0.4887695-0.5426788-0.4104919
		c-0.0926895,0.0229034-0.1273651-0.0856934-0.1498947-0.1664581c-0.0278625-0.0998688-0.0072098-0.2100372-0.0407867-0.3047943
		c-0.0843124-0.2379761-0.0728989-0.5319061-0.342453-0.669342c-0.0007782-0.0315552-0.0109177-0.0595856-0.0318527-0.0836487
		c0.0423431-0.2939453-0.0764313-0.4195862-0.3766708-0.3708496c-0.1112747,0.0180817-0.2301788-0.0017395-0.3381958,0.0252838
		c-0.1780167,0.0445557-0.2173615-0.0694122-0.1909561-0.1826935c0.0360565-0.1546021,0.0147629-0.3091431,0.0421906-0.4611816
		c0.0733719-0.4066925-0.0309753-0.683197-0.4170914-0.8092499c-0.4033813-0.1316986-0.5550995-0.3909912-0.5866394-0.7713928
		c-0.0181198-0.2185669-0.1333008-0.3603821-0.3300018-0.4472504c-0.3534698-0.1560974-0.73172-0.2156372-1.1092682-0.2435608
		c-0.310524-0.0229645-0.47435,0.2021942-0.3967361,0.5119324c0.0373917,0.149231,0.0223389,0.256485-0.087677,0.3624573
		c-0.1261673,0.1215515-0.2877121,0.1611938-0.4450607,0.205658c-0.3965759,0.1120605-0.4768219,0.2537842-0.395752,0.6479645
		c0.0508118,0.2470551,0.2580948,0.50383-0.0200424,0.7545013c-0.048851,0.0440216-0.0005493,0.1560211,0.0231476,0.2371979
		c0.167244,0.5728912,0.0954361,0.6947479-0.4901581,0.8493195c-0.5111923,0.134903-0.6441116,0.35672-0.5542297,0.8709717
		c0.0681305,0.3897705,0.0843887,0.7801666-0.1948853,1.1121521c-0.1376419,0.16362-0.3181534,0.2347412-0.5269775,0.1872406
		c-0.1987686-0.0452118-0.2955627-0.1754456-0.347023-0.3845215c-0.0554428-0.2252502-0.0044708-0.451355-0.0681915-0.6743927
		c-0.1121979-0.3926849-0.1903076-0.4356079-0.5552902-0.2351532c-0.138649,0.0761566-0.3067398,0.1301422-0.3750839-0.0355835
		c-0.1310806-0.3178558-0.3518982-0.2395782-0.5602188-0.1582947c-0.2768326,0.108017-0.5423508,0.2465363-0.8080521,0.3811493
		c-0.3523788,0.1785736-0.6873703,0.0630188-0.8423157-0.2867279c-0.1487885-0.3358459-0.3714371-0.618576-0.6756592-0.8279877
		c-0.1040955-0.0716705-0.2355652-0.1187744-0.336113,0.0037537c-0.0899048,0.1095581,0.0099411,0.1878967,0.076973,0.2649689
		c0.1462936,0.1681976,0.1588058,0.307373-0.0838547,0.3935852c-0.2332611,0.0828705-0.4030838,0.2421417-0.5335693,0.4477844
		c0.682869,1.5641327,1.7890091,2.7379456,3.2822647,3.5547485c1.2189026,0.7242584,2.5541534,0.9982147,3.9520874,0.9628601
		c1.042366-0.0263519,2.0469818-0.2660217,2.9909744-0.7238922c1.576622-0.76474,2.795311-1.8974304,3.5713654-3.4827576
		C0.8546066,182.7823944,0.9083176,182.6740265,0.8997345,182.5602112z"/>
	<path class="st26" d="M1.5261917,177.729187c-0.15271-0.7274628-0.3978729-1.4273987-0.8178558-2.0529327
		c-0.000061-0.0001221-0.0000763-0.0002441-0.0001297-0.0003662c-0.0847626-0.22789-0.2251892-0.4212799-0.3769913-0.6076508
		c-0.119545,0.2924347-0.1417618,0.5994415-0.1292343,0.9099426c0.0084991,0.2105408-0.0381241,0.4096222-0.1082687,0.6042328
		c-0.0278625,0.0773163-0.0691757,0.1643066-0.1706085,0.1525574c-0.1199112-0.0139008-0.0917282-0.1200562-0.0934296-0.1965485
		c-0.0039291-0.1757812,0.0037613-0.3518219-0.0003891-0.5275879c-0.0025482-0.1076965,0.0407486-0.2578278-0.1094208-0.2855835
		c-0.1181717-0.0218353-0.2515793,0.0262451-0.3277054,0.1353302c-0.0578156,0.08284-0.0918884,0.1826935-0.1331558,0.2764587
		c-0.1124039,0.2553864-0.1335983,0.5402374-0.262825,0.7917023c-0.0978012,0.1902771-0.2507629,0.3091583-0.4470291,0.2360229
		c-0.1913376-0.0712891-0.0193558-0.2359924-0.0067902-0.3488159c0.0276337-0.2480469-0.0694351-0.5214233-0.2675781-0.5483246
		c-0.2828598-0.0383911-0.3117294,0.1893463-0.3778992,0.3905792c-0.0957565,0.2911987-0.0151443,0.596283-0.1021118,0.8879852
		c-0.0625534,0.2098541-0.1621704,0.2089844-0.3142776,0.1051483c-0.2745132-0.1874084-0.4322662-0.5684204-0.3548889-0.8969269
		c0.0733948-0.3115387,0.0257263-0.5977325-0.1639404-0.8514862c-0.1817627-0.2431793-0.2580032-0.5058746-0.2418365-0.8096924
		c0.0364227-0.6850433-0.4034729-1.1905212-0.6847076-1.7552338c-0.0088577-0.0177917-0.0239639-0.0349274-0.0404205-0.0460968
		c-0.1390381-0.0943604-0.2924881-0.1420746-0.4243622-0.0113678c-0.1488266,0.1475067,0.0074234,0.2501678,0.0979843,0.3286743
		c0.3600845,0.3121643,0.5541916,0.6854401,0.4981613,1.1727905c-0.0090637,0.0788574,0.0260086,0.1617889,0.0312729,0.243454
		c0.0238876,0.3702393,0.2735596,0.6905212,0.2214966,1.0823975c-0.025528,0.1920776-0.0315018,0.3897095-0.2170258,0.4822845
		c-0.194519,0.0970612-0.3813553,0.0224304-0.5400009-0.1204376c-0.1282501-0.1154785-0.2619476-0.1816101-0.4503403-0.1225281
		c-0.2035675,0.0638428-0.3121872-0.0674744-0.3462296-0.2515259c-0.020401-0.1102448-0.0056686-0.2268677-0.008194-0.3405914
		c-0.0073624-0.3314514-0.2054062-0.4947968-0.6565781-0.5401459c-0.311264-0.0312958-0.1725311,0.2441711-0.2456665,0.372757
		c-0.0492172,0.0865479-0.0542755,0.1974945-0.0833359,0.2962646c-0.1434937,0.4875336-0.0664291,0.9318695,0.2294693,1.3496094
		c0.235054,0.3318634,0.1858292,0.5695038-0.1863251,0.7515106c-0.2442932,0.1194763-0.3534317,0.3056335-0.3468018,0.5326843
		c0.0097809,0.3352509-0.1227036,0.4051056-0.4373856,0.4206543c-0.3127594,0.0154572-0.4605713-0.1279755-0.5707626-0.3620453
		c-0.0831146-0.1765747-0.1317444-0.3690643-0.2075729-0.5495148c-0.0365753-0.0870361-0.0573578-0.2349854-0.1954269-0.1901245
		c-0.1134491,0.03685-0.1647644,0.1643677-0.1413498,0.2822723c0.0237579,0.1196594,0.07267,0.2375031,0.128624,0.3469238
		c0.1316071,0.257309,0.2735214,0.5093689,0.4121933,0.7630463c0.0677795,0.1239624,0.0921249,0.2576294,0.0450745,0.3885803
		c-0.0287628,0.0800781-0.0822144,0.1946106-0.2010956,0.1047058c-0.1123047-0.0848999-0.2219238-0.186615-0.3496323-0.0567017
		c-0.1211777,0.1232605-0.0144882,0.2501984,0.0365601,0.3704681c0.0320663,0.075531,0.0583572,0.1551056,0.1014862,0.2239532
		c0.0606995,0.0968933,0.0948181,0.1972198,0.0046463,0.2811279c-0.0844574,0.0785828-0.1955719,0.1143799-0.3138504,0.0603027
		c-0.0658493-0.0300903-0.1291122-0.0661011-0.195816-0.0940399c-0.0879669-0.0368195-0.1886902-0.0649109-0.2625198,0.0067902
		c-0.0662613,0.0643311,0.0264435,0.1288757,0.0382462,0.1954651c0.016037,0.0905457,0.0401764,0.1819763,0.0390778,0.2727661
		c-0.0019302,0.1593018,0.0638657,0.3778076-0.1151657,0.4446259c-0.1378174,0.0514374-0.2203369-0.1532135-0.323288-0.246582
		c-0.2495804-0.2263184-0.4738312-0.2093353-0.6739731,0.0681305c-0.0784454,0.1087646-0.1411133,0.2294464-0.2241592,0.334259
		c-0.1831818,0.2312164-0.4780502,0.1851501-0.5888367-0.0865326c-0.0476074-0.1167297-0.0639648-0.2375641-0.0608521-0.3637238
		c0.0060806-0.2457581-0.109993-0.3824615-0.3619308-0.4103241c-0.2970734-0.0328369-0.3728333-0.1517792-0.2880173-0.4363861
		c0.0653305-0.219223,0.1696777-0.420105,0.2957611-0.6113739c0.1363068-0.2067719,0.232933-0.4464722,0.0772552-0.6630096
		c-0.2419815-0.3365784-0.1624222-0.6339264,0.0221024-0.9479065c0.0896301-0.1524963,0.1209335-0.3191223-0.0334702-0.4515381
		c-0.1732025-0.1485443-0.2635422-0.3138885-0.181366-0.5435181c0.0258484-0.0722351,0.0166931-0.1212311-0.0810852-0.1036987
		c-0.2255402,0.0404053-0.1836548-0.0933533-0.1373062-0.2200317c0.1094666-0.299118,0.2230759-0.5967407,0.3353653-0.8959198
		c-0.3826904-0.0446014-0.652832,0.2343445-0.7704773,0.7099762c-0.1156006,0.467392,0.0089569,0.9228973,0.0027466,1.3835144
		c-0.0046692,0.3465576-0.1816101,0.6327515-0.3788528,0.5815277c-0.2854233-0.0741425-0.2922974-0.3321686-0.3062134-0.5757599
		c-0.0213394-0.3732452,0.0962448-0.7358246,0.0713425-1.1103821c-0.010788-0.1623077-0.057869-0.3047485-0.2029495-0.3485565
		c-0.1236572-0.0373383-0.1738129,0.1146698-0.2396469,0.2016754c-0.1239471,0.1638184-0.2529449,0.3122864-0.4870453,0.1839447
		c-0.2382278,0.5659332-0.358345,1.1629028-0.4141235,1.7682037c-0.12603,1.3677521,0.0421829,2.6926727,0.651886,3.9416962
		c0.2273026-0.0820618,0.3593979-0.3023071,0.5864487-0.3925934c0.1964417-0.0780945,0.2495193-0.2321777,0.1373062-0.429306
		c-0.0367432-0.0645599-0.130455-0.1451263-0.0368805-0.2142639c0.0725784-0.0536194,0.1579666,0.0109711,0.2235413,0.0623627
		c0.2667084,0.2090607,0.467041,0.4711914,0.5843887,0.7880249c0.0892105,0.2408447,0.2591248,0.3302612,0.5015869,0.3325195
		c0.1791916,0.0016479,0.344635-0.0278931,0.5089645-0.1085052c0.2319107-0.1137543,0.4600983-0.2371063,0.7018051-0.3301239
		c0.1755905-0.0675659,0.3414307-0.0819397,0.4743195,0.0925446c0.1274796,0.1673737,0.2898941,0.16745,0.473053,0.0949707
		c0.3265457-0.1291656,0.4170609-0.0748444,0.4718857,0.2708588c0.0307236,0.1937866,0.0089722,0.3925934,0.0619125,0.5851135
		c0.1167679,0.4246063,0.5503387,0.579895,0.8986588,0.3151855c0.1809082-0.1374664,0.2787247-0.3276672,0.3281403-0.546936
		c0.0582581-0.2584839,0.0270767-0.5129089-0.0160904-0.7696075c-0.064537-0.3837738,0.0555649-0.5769958,0.4273376-0.7084351
		c0.0780182-0.0275726,0.1592178-0.0455475,0.2373352-0.0731506c0.4352112-0.1537323,0.5359268-0.3351898,0.4284134-0.7783966
		c-0.0292206-0.1204834-0.0883102-0.2474518-0.0112762-0.3601837c0.120636-0.1764984,0.0848083-0.347168,0.0328903-0.5324402
		c-0.1577911-0.5630035-0.1270065-0.6166534,0.4164352-0.8137817c0.3686218-0.1337128,0.4517975-0.2520752,0.4435577-0.6665344
		c-0.0033493-0.1684723,0.0549469-0.3059692,0.2215729-0.3218994c0.4627762-0.0442657,0.906601,0.0368805,1.3044586,0.2915497
		c0.0999908,0.0639954,0.1392212,0.1807556,0.1528244,0.2958069c0.0478821,0.404892,0.2371368,0.6782379,0.637558,0.8318481
		c0.331459,0.1271515,0.4186401,0.3428497,0.3781891,0.6973267c-0.0117416,0.1028748-0.0197372,0.2058868-0.0282822,0.3089294
		c-0.0339584,0.4095764,0.002861,0.4525604,0.4137726,0.4273071c0.2405853-0.0147858,0.4583664-0.0092773,0.5270462,0.2841644
		c0.0082703,0.0014191,0.0146561,0.0003662,0.0224762,0.0012054c-0.0005875,0.0222015-0.0011368,0.0443573-0.0016861,0.0664978
		c0.0937119,0.075119,0.1288376,0.1869659,0.1682816,0.2911835c0.0760117,0.2008362,0.1504211,0.3976288,0.1535034,0.6248779
		c0.0019455,0.1431732,0.0151138,0.4525909,0.2495728,0.3512573c0.3364563-0.1454468,0.3372192,0.0846863,0.4206161,0.2560577
		c0.034523,0.0709229,0.0354462,0.1875305,0.1354446,0.1812439c0.1249542-0.0078583,0.1009064-0.1289673,0.1155167-0.2182007
		c0.0413742-0.2526245-0.1254883-0.4964447-0.0400848-0.7581635c0.343132,0.2364044,0.3501282,0.251236,0.5832214,0.1414337
		c0.245636-0.1156921,0.3220291,0.0030823,0.4084625,0.2062531c0.0751114,0.17659-0.0336304,0.3773651,0.1004944,0.5349579
		C1.7458878,181.2541351,1.9023743,179.5211639,1.5261917,177.729187z"/>
</g>
</svg>
